<?xml version="1.0" standalone="no"?>
<!DOCTYPE svg PUBLIC "-//W3C//DTD SVG 20010904//EN"
 "http://www.w3.org/TR/2001/REC-SVG-20010904/DTD/svg10.dtd">
<svg version="1.0" xmlns="http://www.w3.org/2000/svg"
 width="24.000000pt" height="24.000000pt" viewBox="0 0 512.000000 512.000000"
 preserveAspectRatio="xMidYMid meet">

<g transform="translate(0.000000,512.000000) scale(0.100000,-0.100000)"
fill="#000000" stroke="none">
<path  style="fill:#ebc45c;fill-rule:nonzero;" d="M4659 5090 c-128 -22 -60 41 -1302 -1199 -930 -929 -1152 -1155
-1171 -1196 -38 -79 -76 -297 -92 -528 l-7 -97 34 0 c19 0 111 9 205 19 181
21 323 49 389 76 30 12 324 301 1186 1163 983 984 1150 1155 1173 1203 117
245 -19 516 -281 559 -64 11 -69 11 -134 0z m152 -236 c63 -32 98 -114 79
-186 -10 -39 -126 -158 -1143 -1175 l-1132 -1132 -75 -15 c-41 -8 -105 -18
-141 -22 l-66 -7 18 120 c10 65 22 130 28 143 5 14 515 530 1133 1148 887 886
1132 1126 1164 1137 42 16 92 12 135 -11z"/>
<path  style="fill:#ebc45c;fill-rule:nonzero;" d="M551 4330 c-278 -73 -479 -287 -536 -567 -14 -69 -15 -253 -13 -1608
3 -1434 5 -1534 21 -1590 66 -221 227 -402 430 -486 148 -61 96 -60 1753 -56
1683 3 1555 -2 1711 73 147 71 265 188 338 339 79 162 75 80 75 1562 l0 1318
-110 -110 -110 -110 0 -1195 c0 -1300 1 -1258 -56 -1373 -59 -118 -178 -218
-303 -257 -62 -20 -97 -20 -1585 -20 -1363 0 -1528 2 -1576 16 -160 47 -289
175 -346 344 -18 53 -19 116 -19 1575 0 1427 1 1523 18 1577 47 154 163 277
319 341 l53 22 1265 3 1266 2 109 110 110 110 -1370 -1 c-1322 0 -1373 -1
-1444 -19z"/>
</g>
</svg>
